<svg width="19" height="24" viewBox="0 0 19 24" fill="none" xmlns="http://www.w3.org/2000/svg">
<path d="M18.8385 20.8287L18.2797 22.1148C17.855 23.093 17.0433 23.7133 16.1529 23.7352C13.8513 23.792 9.25209 23.0979 4.88604 17.6408C0.493903 12.1511 -0.0504903 6.41745 0.00338621 3.55124C0.0244564 2.44266 0.520188 1.43401 1.29965 0.904724L2.33572 0.201985C2.85479 -0.150158 3.49719 -0.0338364 3.91496 0.488329L6.71873 3.99277C7.23951 4.6437 7.23951 5.69892 6.71873 6.34985L6.13913 7.07404C5.84401 7.44325 5.74641 7.99364 5.89192 8.48295C6.19328 9.49846 6.89525 11.3079 8.42411 13.2188C9.95297 15.1297 11.4008 16.0071 12.2133 16.3841C12.6048 16.5656 13.0451 16.4439 13.3403 16.0747L13.9199 15.3505C14.4406 14.6996 15.2849 14.6996 15.8057 15.3505L18.6094 18.855C19.0269 19.3766 19.1202 20.1799 18.8385 20.8287Z" fill="#9241AE"/>
</svg>
