<?xml version="1.0" encoding="UTF-8" standalone="no"?>
<!-- Generator: Adobe Illustrator 27.5.0, SVG Export Plug-In . SVG Version: 6.00 Build 0)  -->

<svg
   xmlns:dc="http://purl.org/dc/elements/1.1/"
   xmlns:cc="http://creativecommons.org/ns#"
   xmlns:rdf="http://www.w3.org/1999/02/22-rdf-syntax-ns#"
   xmlns:svg="http://www.w3.org/2000/svg"
   xmlns="http://www.w3.org/2000/svg"
   xmlns:sodipodi="http://sodipodi.sourceforge.net/DTD/sodipodi-0.dtd"
   xmlns:inkscape="http://www.inkscape.org/namespaces/inkscape"
   version="1.1"
   id="Layer_1"
   x="0px"
   y="0px"
   viewBox="0 0 409.803 414.263"
   style="enable-background:new 0 0 409.803 414.263;"
   xml:space="preserve"
   sodipodi:docname="new.svg"
   inkscape:version="0.92.5 (2060ec1f9f, 2020-04-08)"><metadata
   id="metadata68"><rdf:RDF><cc:Work
       rdf:about=""><dc:format>image/svg+xml</dc:format><dc:type
         rdf:resource="http://purl.org/dc/dcmitype/StillImage" /><dc:title></dc:title></cc:Work></rdf:RDF></metadata><defs
   id="defs66" /><sodipodi:namedview
   pagecolor="#ffffff"
   bordercolor="#666666"
   borderopacity="1"
   objecttolerance="10"
   gridtolerance="10"
   guidetolerance="10"
   inkscape:pageopacity="0"
   inkscape:pageshadow="2"
   inkscape:window-width="2560"
   inkscape:window-height="1330"
   id="namedview64"
   showgrid="false"
   inkscape:zoom="0.56968641"
   inkscape:cx="204.9015"
   inkscape:cy="207.1315"
   inkscape:window-x="-12"
   inkscape:window-y="-12"
   inkscape:window-maximized="1"
   inkscape:current-layer="Layer_1" />
<radialGradient
   id="SVGID_1_"
   cx="4951.1289"
   cy="-989.2034"
   r="897.4651"
   gradientTransform="matrix(0.3017 0 0 0.305 -1276.325 594.5736)"
   gradientUnits="userSpaceOnUse">
	<stop
   offset="0"
   style="stop-color:#FFFFFF"
   id="stop2" />
	<stop
   offset="0.2814"
   style="stop-color:#F5F8FA"
   id="stop4" />
	<stop
   offset="0.5294"
   style="stop-color:#E3EBF0"
   id="stop6" />
	<stop
   offset="0.7647"
   style="stop-color:#C9D9E2"
   id="stop8" />
	<stop
   offset="0.991"
   style="stop-color:#A8C0CD"
   id="stop10" />
	<stop
   offset="1"
   style="stop-color:#A6BFCC"
   id="stop12" />
</radialGradient>

<g
   id="g53">
	
		<linearGradient
   id="SVGID_00000177446135651963592730000008937346633033522865_"
   gradientUnits="userSpaceOnUse"
   x1="332.0183"
   y1="270.9926"
   x2="75.8049"
   y2="151.5183">
		<stop
   offset="0"
   style="stop-color:#BCBEC0"
   id="stop17" />
		<stop
   offset="0.4909"
   style="stop-color:#F1F2F2"
   id="stop19" />
		<stop
   offset="0.5519"
   style="stop-color:#E8E9EA"
   id="stop21" />
		<stop
   offset="0.6581"
   style="stop-color:#D0D2D3"
   id="stop23" />
		<stop
   offset="0.797"
   style="stop-color:#AAACAE"
   id="stop25" />
		<stop
   offset="0.9615"
   style="stop-color:#797B7D"
   id="stop27" />
		<stop
   offset="1"
   style="stop-color:#6D6E71"
   id="stop29" />
	</linearGradient>
	<path
   style="fill:url(#SVGID_00000177446135651963592730000008937346633033522865_);"
   d="M201.119,65.508   c-7.098,0-14.072,0.515-20.889,1.512L58.121,189.441c-0.952,6.703-1.448,13.553-1.448,20.516   c0,79.643,64.796,144.439,144.446,144.439c79.643,0,144.438-64.796,144.438-144.439C345.557,130.309,280.762,65.508,201.119,65.508   z"
   id="path32" />
	<path
   style="fill:#BE1E2D;"
   d="M201.119,74.757c-6.639,0-13.168,0.481-19.555,1.413L67.279,190.758   c-0.894,6.27-1.355,12.681-1.355,19.199c0,74.542,60.645,135.189,135.195,135.189c74.541,0,135.192-60.647,135.192-135.189   C336.311,135.41,275.66,74.757,201.119,74.757z"
   id="path34" />
	
		<linearGradient
   id="SVGID_00000127035499924743829470000017745899312106040996_"
   gradientUnits="userSpaceOnUse"
   x1="384.9784"
   y1="1907.8564"
   x2="384.9784"
   y2="1877.3425"
   gradientTransform="matrix(-0.7071 0.7071 -0.9533 -0.9533 2210.3799 1674.3833)">
		<stop
   offset="0"
   style="stop-color:#BCBEC0"
   id="stop36" />
		<stop
   offset="0.2121"
   style="stop-color:#F1F2F2"
   id="stop38" />
		<stop
   offset="0.3065"
   style="stop-color:#E8E9EA"
   id="stop40" />
		<stop
   offset="0.4709"
   style="stop-color:#D0D2D3"
   id="stop42" />
		<stop
   offset="0.6858"
   style="stop-color:#AAACAE"
   id="stop44" />
		<stop
   offset="0.9404"
   style="stop-color:#797B7D"
   id="stop46" />
		<stop
   offset="1"
   style="stop-color:#6D6E71"
   id="stop48" />
	</linearGradient>
	<path
   style="fill:url(#SVGID_00000127035499924743829470000017745899312106040996_);"
   d="M180.231,67.02L58.576,188.668   c0,0,46.05,12.139,89.65-31.473C186.7,118.737,180.231,67.02,180.231,67.02z"
   id="path51" />
</g>
<g
   id="g61">
	<path
   style="fill:#F1F2F2;"
   d="M189.816,168.004l-14.737,69.333h-11.216l-7.879-48.478l-10.289,48.478h-13.348l13.348-62.938   c-8.064,3.337-12.884,10.382-12.884,20.206c0,4.728,1.205,5.469,1.298,6.303c-6.397,0-9.918-2.316-9.918-8.99   c0-10.567,10.288-24.1,26.231-24.1c2.781,0,5.933,0,8.621,1.297l7.322,49.127l10.104-50.238H189.816z"
   id="path55" />
	<path
   style="fill:#F1F2F2;"
   d="M204.742,230.107c7.322,0,11.771-4.08,16.406-9.363h3.15c-5.283,8.529-13.161,17.148-25.49,17.148   c-8.713,0-14.459-4.264-14.459-14.738c0-10.659,6.025-32.998,25.027-32.998c8.249,0,10.195,4.265,10.195,8.898   c0,10.66-10.195,18.908-21.318,19.558c-0.093,1.298-0.186,2.597-0.186,3.708C198.068,228.624,200.293,230.107,204.742,230.107z    M210.117,195.068c-4.727,0-9.268,9.918-11.123,19.096c7.139-0.464,13.441-7.602,13.441-15.295   C212.436,196.552,211.879,195.068,210.117,195.068z"
   id="path57" />
	<path
   style="fill:#F1F2F2;"
   d="M240.798,190.99l-6.673,31.516c-0.186,0.742-0.278,1.576-0.278,2.318   c0,2.131,0.649,4.078,2.78,4.078c3.615,0,6.025-3.523,7.415-8.158l6.304-29.754h13.348l-6.674,31.516   c-0.279,1.297-0.464,2.502-0.464,3.336c0,1.855,0.927,3.061,3.151,3.061c9.085,0,16.035-20.764,16.035-30.96   c-0.277,0.649-2.223,0.927-2.965,0.927c-2.225,0-3.338-2.688-3.338-4.727c0-2.874,1.853-5.006,5.748-5.006   c4.449,0,5.838,3.985,5.838,8.064c0,14.83-7.506,40.691-26.416,40.691c-6.025,0-10.011-2.596-11.123-7.785   c-4.542,6.673-9.455,7.785-13.162,7.785c-5.562,0-9.918-3.336-9.918-11.123c0-1.762,0.277-3.801,0.742-6.025l6.303-29.754H240.798z   "
   id="path59" />
</g>
</svg>