<svg width="16" height="26" viewBox="0 0 16 26" fill="none" xmlns="http://www.w3.org/2000/svg">
<path d="M13.7451 0H2.25517C1.01164 0 0 1.01568 0 2.26386V23.7358C0 24.9843 1.01164 26 2.25517 26H13.7451C14.9883 26 16 24.9843 16 23.7358V2.26386C16.0001 1.01568 14.9884 0 13.7451 0ZM9.4827 24.2166C9.35649 24.3434 9.18221 24.4216 8.98997 24.4216H7.01041C6.62524 24.4216 6.31311 24.1083 6.31311 23.7219C6.31311 23.5285 6.39116 23.3535 6.51729 23.2269C6.6435 23.1004 6.81778 23.0222 7.01033 23.0222H8.98988C9.37475 23.0222 9.68688 23.3352 9.68688 23.7219C9.68696 23.9149 9.60891 24.09 9.4827 24.2166ZM14.9349 19.9183C14.9349 20.4079 14.7286 20.8799 14.3541 21.1938C14.0687 21.4326 13.7019 21.576 13.3014 21.576H2.69908C2.29861 21.576 1.93147 21.4326 1.64634 21.1935C1.27152 20.8799 1.06528 20.4079 1.06528 19.9183V2.4199C1.06528 1.70546 1.64239 1.12635 2.354 1.12635H13.6466C14.3582 1.12635 14.935 1.70546 14.935 2.4199V19.9183H14.9349Z" fill="#9241AE"/>
</svg>
